<?xml version="1.0" encoding="utf-8"?>
<!-- Generator: Adobe Illustrator 19.1.0, SVG Export Plug-In . SVG Version: 6.00 Build 0)  -->
<svg version="1.1" xmlns="http://www.w3.org/2000/svg" xmlns:xlink="http://www.w3.org/1999/xlink" x="0px" y="0px"
	 viewBox="-285 408.9 24 24" style="enable-background:new -285 408.9 24 24;" xml:space="preserve">
<style type="text/css">
	.st0{fill:#FFFFFF;}
	.st1{fill:#FFFFFF;stroke:#FFFFFF;stroke-width:6;stroke-miterlimit:10;}
	.st2{display:none;}
	.st3{display:inline;fill:none;stroke:#F74141;stroke-width:2;stroke-miterlimit:10;}
	.st4{display:inline;fill:#F3931A;}
	.st5{display:inline;fill:#FFF931;}
	.st6{display:inline;fill:#FF6B31;}
	.st7{display:inline;fill:#0376FF;}
	.st8{fill:#1552FF;}
	.st9{display:inline;fill:#FFB600;}
	.st10{display:inline;fill:#1DFF17;}
	.st11{display:inline;fill:#FF1717;}
</style>
<g id="Layer_1">
	<path class="st0" d="M-273,410.9c3.2,0,6,2.6,6,5.6c0,3.1-2.5,7.1-6,12.7c-3.5-5.5-6-9.6-6-12.7C-279,413.5-276.2,410.9-273,410.9
		 M-273,408.9c-4.2,0-8,3.4-8,7.6c0,4.2,3.5,9.2,8,16.4c4.5-7.2,8-12.2,8-16.4C-265,412.3-268.8,408.9-273,408.9z"/>
</g>
<g id="Layer_3">
	<path class="st1" d="M-273,413.9c1.6,0,3,1.3,3,2.8c0,1.5-1.2,3.6-3,6.3c-1.8-2.8-3-4.8-3-6.3C-276,415.2-274.6,413.9-273,413.9
		 M-273,412.9c-2.1,0-4,1.7-4,3.8c0,2.1,1.7,4.6,4,8.2c2.3-3.6,4-6.1,4-8.2C-269,414.6-270.9,412.9-273,412.9z"/>
</g>
<g id="medical" class="st2">
	<line class="st3" x1="-278.3" y1="417" x2="-267.4" y2="417"/>
	<line class="st3" x1="-272.8" y1="411.6" x2="-272.8" y2="422.5"/>
</g>
<g id="fire" class="st2">
	<path class="st4" d="M-274.7,412c0.3,3.5-2.8,4.7-2.8,7.8c0,2.1,1.7,3.6,3.7,3.9c-0.6-1,0-2.4,0.8-3.2c0.9,0.8,1.3,2.3,0.7,3.2
		c2.2-0.4,3.8-2.2,3.8-4.4c0-2-1-3.9-3-5.1c0.5,1.3-0.2,2.4-0.7,2.8C-272.2,415.5-272.8,413.1-274.7,412z"/>
	<path class="st4" d="M-257.5,417.7"/>
	<path class="st5" d="M-273.8,423.8c-0.6-1,0-2.4,0.8-3.2c0.9,0.8,1.3,2.3,0.7,3.2"/>
</g>
<g id="crash" class="st2">
	<path class="st6" d="M-273.8,414.1l0.9,2.1l2-0.8l-1,1.8l1.8,0.5l-1.8,0.7l1.2,2.2l-2.6-1.4l-1.5,1.2l0.2-1.6l-2-0.4l1.6-0.9
		l-1-1.3l1.8,0.3C-274.2,416.6-273.8,414.1-273.8,414.1z M-274.2,410.5l-0.9,4.9l-3.5-0.7l1.9,2.6l-3,1.8l3.8,0.7l-0.4,3.3l3.1-2.4
		l5.1,2.7l-2.3-4.3l3.7-1.4l-3.6-1l1.7-3.3l-3.7,1.6C-272.3,414.8-274.2,410.5-274.2,410.5z"/>
</g>
<g id="police" class="st2">
	<path class="st7" d="M-273,424.2c-0.7-0.6-0.9-0.7-2.3-1.1c-1.9-0.5-3-1.8-3-3.5c0-1,0.4-1.9,0.8-3.1c0.5-1.4,0.2-1.8-0.3-2.4
		l-0.4-0.5l2.6-2.2c0.3,0.3,0.6,0.7,1.3,0.7c0.6,0,1.1-0.5,1.4-0.7c0.3,0.2,0.7,0.7,1.4,0.7c0.6,0,1-0.5,1.3-0.8
		c0.6,0.5,0,0.1,2.6,2.2l-0.4,0.5c-0.5,0.6-0.8,1-0.3,2.4c0.4,1.2,0.8,2.1,0.8,3.1c0,1.7-1.1,3-3,3.5
		C-272.1,423.5-272.3,423.7-273,424.2z"/>
</g>
<g id="blue">
	<circle class="st8" cx="-273" cy="416.8" r="5.8"/>
</g>
<g id="orange" class="st2">
	<circle class="st9" cx="-273" cy="416.8" r="5.8"/>
</g>
<g id="green" class="st2">
	<circle class="st10" cx="-273" cy="416.8" r="5.8"/>
</g>
<g id="red" class="st2">
	<circle class="st11" cx="-273" cy="416.8" r="5.8"/>
</g>
</svg>
