<?xml version="1.0" encoding="utf-8"?>
<!-- Generator: Adobe Illustrator 19.1.0, SVG Export Plug-In . SVG Version: 6.00 Build 0)  -->
<svg version="1.1" xmlns="http://www.w3.org/2000/svg" xmlns:xlink="http://www.w3.org/1999/xlink" x="0px" y="0px"
	 viewBox="0 0 15 15" style="enable-background:new 0 0 15 15;" xml:space="preserve">
<style type="text/css">
	.st0{display:none;}
	.st1{display:inline;fill:#1DFF17;}
	.st2{display:inline;fill:#FF1717;}
	.st3{display:inline;fill:#1552FF;}
	.st4{display:inline;fill:#FFB600;}
	.st5{fill:#0376FF;}
	.st6{display:inline;fill:#FF6B31;}
	.st7{display:inline;fill:#F3931A;}
	.st8{display:inline;fill:#FFF931;}
	.st9{display:inline;fill:none;stroke:#F74141;stroke-width:2;stroke-miterlimit:10;}
</style>
<g id="green" class="st0">
	<circle class="st1" cx="7.5" cy="7.5" r="5.8"/>
</g>
<g id="red" class="st0">
	<circle class="st2" cx="7.5" cy="7.5" r="5.8"/>
</g>
<g id="blue" class="st0">
	<circle class="st3" cx="7.5" cy="7.5" r="5.8"/>
</g>
<g id="orange" class="st0">
	<circle class="st4" cx="7.5" cy="7.5" r="5.8"/>
</g>
<g id="Layer_2">
	<path class="st5" d="M7.5,13.9c-0.7-0.6-0.9-0.7-2.3-1.1c-1.9-0.5-3-1.8-3-3.5c0-1,0.4-1.9,0.8-3.1c0.5-1.4,0.2-1.8-0.3-2.4
		L2.3,3.4l2.6-2.2c0.3,0.3,0.6,0.7,1.3,0.7c0.6,0,1.1-0.5,1.4-0.7c0.3,0.2,0.7,0.7,1.4,0.7c0.6,0,1-0.5,1.3-0.8
		c0.6,0.5,0,0.1,2.6,2.2l-0.4,0.5c-0.5,0.6-0.8,1-0.3,2.4c0.4,1.2,0.8,2.1,0.8,3.1c0,1.7-1.1,3-3,3.5C8.4,13.1,8.2,13.3,7.5,13.9z"
		/>
</g>
<g id="Layer_3" class="st0">
	<path class="st6" d="M7.1,4.8L8,6.9l2-0.8L9,7.9l1.8,0.5L8.9,9.1l1.2,2.2L7.6,9.9L6,11.2l0.2-1.6l-2-0.4l1.6-0.9l-1-1.3l1.8,0.3
		C6.6,7.2,7.1,4.8,7.1,4.8z M6.6,1.1L5.8,6L2.3,5.3l1.9,2.6l-3,1.8l3.8,0.7l-0.4,3.3l3.1-2.4l5.1,2.7l-2.3-4.3l3.7-1.4l-3.6-1
		l1.7-3.3L8.5,5.5C8.5,5.5,6.6,1.1,6.6,1.1z"/>
</g>
<g id="Layer_4" class="st0">
	<path class="st7" d="M5.8,1.1C6.1,4.7,3,5.9,3,9c0,2.1,1.7,3.6,3.7,3.9c-0.6-1,0-2.4,0.8-3.2c0.9,0.8,1.3,2.3,0.7,3.2
		c2.2-0.4,3.8-2.2,3.8-4.4c0-2-1-3.9-3-5.1c0.5,1.3-0.2,2.4-0.7,2.8C8.3,4.6,7.7,2.2,5.8,1.1z"/>
	<path class="st8" d="M6.7,12.9c-0.6-1,0-2.4,0.8-3.2c0.9,0.8,1.3,2.3,0.7,3.2"/>
</g>
<g id="Layer_5" class="st0">
	<line class="st9" x1="2.1" y1="7.5" x2="12.9" y2="7.5"/>
	<line class="st9" x1="7.5" y1="2.1" x2="7.5" y2="12.9"/>
</g>
</svg>
