<?xml version="1.0" encoding="utf-8"?>
<!-- Generator: Adobe Illustrator 19.1.0, SVG Export Plug-In . SVG Version: 6.00 Build 0)  -->
<svg version="1.1" xmlns="http://www.w3.org/2000/svg" xmlns:xlink="http://www.w3.org/1999/xlink" x="0px" y="0px"
	 viewBox="-285 408.9 24 24" style="enable-background:new -285 408.9 24 24;" xml:space="preserve">
<style type="text/css">
	.st0{fill:#FFFFFF;}
	.st1{fill:#FFFFFF;stroke:#FFFFFF;stroke-width:6;stroke-miterlimit:10;}
	.st2{fill:none;stroke:#F74141;stroke-width:2;stroke-miterlimit:10;}
</style>
<g id="Layer_1">
	<path class="st0" d="M-273,410.9c3.2,0,6,2.6,6,5.6c0,3.1-2.5,7.1-6,12.7c-3.5-5.5-6-9.6-6-12.7C-279,413.5-276.2,410.9-273,410.9
		 M-273,408.9c-4.2,0-8,3.4-8,7.6c0,4.2,3.5,9.2,8,16.4c4.5-7.2,8-12.2,8-16.4C-265,412.3-268.8,408.9-273,408.9z"/>
</g>
<g id="Layer_3">
	<path class="st1" d="M-273,413.9c1.6,0,3,1.3,3,2.8c0,1.5-1.2,3.6-3,6.3c-1.8-2.8-3-4.8-3-6.3C-276,415.2-274.6,413.9-273,413.9
		 M-273,412.9c-2.1,0-4,1.7-4,3.8c0,2.1,1.7,4.6,4,8.2c2.3-3.6,4-6.1,4-8.2C-269,414.6-270.9,412.9-273,412.9z"/>
</g>
<g id="Layer_2">
	<line class="st2" x1="-278.3" y1="417" x2="-267.4" y2="417"/>
	<line class="st2" x1="-272.8" y1="411.6" x2="-272.8" y2="422.5"/>
</g>
</svg>
